<svg xmlns="http://www.w3.org/2000/svg" viewBox="0 0 180 180">
  <defs>
    <linearGradient id="paper" x1="0%" y1="0%" x2="100%" y2="100%">
      <stop offset="0%" stop-color="#f8f3e6"/>
      <stop offset="100%" stop-color="#ede2c9"/>
    </linearGradient>
    <clipPath id="clip"><rect x="0" y="0" width="180" height="180" rx="40" ry="40"/></clipPath>
  </defs>
  <g clip-path="url(#clip)">
    <rect width="180" height="180" fill="url(#paper)"/>
    <g stroke="rgba(107,93,77,0.08)" stroke-width="0.5">
      <line x1="0" y1="30" x2="180" y2="30"/><line x1="0" y1="60" x2="180" y2="60"/>
      <line x1="0" y1="90" x2="180" y2="90"/><line x1="0" y1="120" x2="180" y2="120"/>
      <line x1="0" y1="150" x2="180" y2="150"/>
      <line x1="30" y1="0" x2="30" y2="180"/><line x1="60" y1="0" x2="60" y2="180"/>
      <line x1="90" y1="0" x2="90" y2="180"/><line x1="120" y1="0" x2="120" y2="180"/>
      <line x1="150" y1="0" x2="150" y2="180"/>
    </g>
    <g transform="rotate(-8 35 28)">
      <rect x="-5" y="22" width="70" height="14" fill="#b6896a" opacity="0.55"/>
    </g>
    <g transform="rotate(6 145 155)">
      <rect x="115" y="148" width="60" height="12" fill="#7a8c5a" opacity="0.45"/>
    </g>
    <path d="M 50 112 Q 90 148 130 112" fill="none" stroke="#4a4035" stroke-width="4" stroke-linecap="round"/>
    <ellipse cx="90" cy="112" rx="40" ry="4" fill="none" stroke="#4a4035" stroke-width="1.5" opacity="0.5" stroke-dasharray="2 2"/>
    <text x="88" y="96" font-family="Cormorant Garamond, serif" font-size="110" font-weight="500" font-style="italic" text-anchor="middle" fill="#5a6e42">J</text>
    <circle cx="42" cy="50" r="5" fill="#b55a5a"/>
    <circle cx="145" cy="75" r="3" fill="#d9a85a"/>
    <text x="90" y="138" font-family="Caveat, cursive" font-size="14" font-weight="700" text-anchor="middle" fill="#b6896a" transform="rotate(-2 90 138)">— today —</text>
    <rect x="8" y="8" width="164" height="164" rx="32" fill="none" stroke="#9b8f7d" stroke-width="0.8" stroke-dasharray="3 3" opacity="0.3"/>
  </g>
</svg>
